<svg width="401" height="127" viewBox="0 0 401 127" fill="none" xmlns="http://www.w3.org/2000/svg">
<path d="M60.9347 74.5285C67.1103 74.5285 72.1166 69.5269 72.1166 63.3571C72.1166 57.1873 67.1103 52.1856 60.9347 52.1856C54.7592 52.1856 49.7529 57.1873 49.7529 63.3571C49.7529 69.5269 54.7592 74.5285 60.9347 74.5285Z" fill="#61DAFB"/>
<path d="M60.9348 86.2449C94.0719 86.2449 120.935 75.9977 120.935 63.3571C120.935 50.7165 94.0719 40.4693 60.9348 40.4693C27.7977 40.4693 0.934814 50.7165 0.934814 63.3571C0.934814 75.9977 27.7977 86.2449 60.9348 86.2449Z" stroke="#61DAFB"/>
<path d="M41.095 74.801C57.6635 103.472 79.9776 121.591 90.9348 115.27C101.892 108.95 97.3432 80.5841 80.7747 51.9132C64.2061 23.2423 41.8921 5.1236 30.9348 11.4439C19.9776 17.7642 24.5264 46.1301 41.095 74.801Z" stroke="#61DAFB"/>
<path d="M41.0949 51.9132C24.5264 80.5841 19.9775 108.95 30.9348 115.27C41.892 121.591 64.2061 103.472 80.7747 74.801C97.3432 46.1301 101.892 17.7642 90.9348 11.4439C79.9776 5.12361 57.6635 23.2423 41.0949 51.9132Z" stroke="#61DAFB"/>
<path d="M389.065 3H292.503C286.031 3 280.784 8.24666 280.784 14.7188V111.281C280.784 117.753 286.031 123 292.503 123H389.065C395.537 123 400.784 117.753 400.784 111.281V14.7188C400.784 8.24666 395.537 3 389.065 3Z" fill="#3178C6"/>
<path fill-rule="evenodd" clip-rule="evenodd" d="M355.081 98.3906V110.109C356.979 111.094 359.3 111.82 361.878 112.312C364.456 112.805 367.268 113.039 370.081 113.039C372.893 113.039 375.472 112.781 378.05 112.242C380.628 111.703 382.737 110.812 384.612 109.664C386.511 108.422 388.128 106.852 389.065 104.742C390.003 102.633 390.729 100.289 390.729 97.2422C390.729 95.1094 390.401 93.2578 389.768 91.6172C389.136 89.9766 388.222 88.5703 386.956 87.3984C385.761 86.1562 384.378 85.0547 382.737 84.1172C381.097 83.1797 379.222 82.1953 377.112 81.3047C375.565 80.6719 374.3 80.0625 372.893 79.4531C371.675 78.8437 370.62 78.2344 369.847 77.625C368.979 76.9922 368.323 76.3359 367.854 75.6562C367.386 74.9531 367.151 74.1797 367.151 73.3125C367.151 72.5156 367.36 71.7891 367.784 71.1328C368.208 70.4766 368.792 69.9375 369.542 69.4687C370.292 69 371.229 68.6484 372.354 68.3906C373.456 68.1328 374.675 68.0156 376.104 68.0156C377.089 68.0156 378.12 68.0883 379.151 68.2359C380.229 68.3836 381.331 68.6109 382.432 68.9156C383.534 69.2203 384.612 69.5953 385.714 70.0641C386.745 70.5328 387.706 71.0719 388.526 71.6812V60.6656C386.745 59.9859 384.776 59.4703 382.667 59.1422C380.557 58.8141 378.214 58.65 375.401 58.65C372.589 58.65 370.011 58.9547 367.432 59.5406C364.854 60.1266 362.745 61.0641 360.87 62.3531C358.972 63.6187 357.589 65.1656 356.417 67.275C355.315 69.2437 354.776 71.4937 354.776 74.3062C354.776 77.8219 355.784 80.8687 357.823 83.2125C359.839 85.7906 362.979 87.6656 366.964 89.5406C368.581 90.1969 370.011 90.8531 371.417 91.4859C372.823 92.1187 373.995 92.775 374.932 93.4547C375.94 94.1344 376.737 94.8844 377.276 95.6812C377.862 96.4781 378.167 97.4156 378.167 98.4937C378.167 99.2437 377.984 99.9469 377.628 100.603C377.272 101.259 376.714 101.822 375.964 102.291C375.214 102.759 374.3 103.134 373.151 103.416C372.05 103.673 370.807 103.814 369.167 103.814C366.589 103.814 364.011 103.369 361.667 102.478C359.089 101.587 356.745 100.252 354.636 98.4937L355.081 98.3906ZM335.393 69.5625H350.393V59.9531H308.44V69.5625H323.44V112.453H335.393V69.5625Z" fill="white"/>
<path d="M260.387 20.761L204.088 121.434C202.926 123.512 199.94 123.524 198.76 121.456L141.344 20.7707C140.059 18.5166 141.986 15.7864 144.541 16.2429L200.9 26.3169C201.26 26.3811 201.628 26.3805 201.987 26.315L257.168 16.2574C259.714 15.7934 261.65 18.5025 260.387 20.761Z" fill="url(#paint0_linear_1_24)"/>
<path d="M227.747 3.02954L186.084 11.1933C185.399 11.3274 184.892 11.9077 184.851 12.6042L182.288 55.8888C182.228 56.9083 183.164 57.6996 184.159 57.4701L195.759 54.7931C196.844 54.5428 197.825 55.4987 197.602 56.5901L194.155 73.4657C193.923 74.6014 194.99 75.5726 196.099 75.2357L203.263 73.059C204.374 72.7218 205.441 73.6958 205.206 74.8325L199.73 101.34C199.387 102.998 201.592 103.902 202.512 102.481L203.127 101.531L237.076 33.7795C237.645 32.6451 236.664 31.3516 235.418 31.592L223.478 33.8964C222.356 34.1127 221.402 33.0678 221.718 31.9701L229.511 4.9549C229.828 3.8553 228.87 2.80948 227.747 3.02954Z" fill="url(#paint1_linear_1_24)"/>
<defs>
<linearGradient id="paint0_linear_1_24" x1="139.942" y1="12.645" x2="210.011" y2="107.804" gradientUnits="userSpaceOnUse">
<stop stop-color="#41D1FF"/>
<stop offset="1" stop-color="#BD34FE"/>
</linearGradient>
<linearGradient id="paint1_linear_1_24" x1="197.665" y1="5.24597" x2="210.34" y2="92.1958" gradientUnits="userSpaceOnUse">
<stop stop-color="#FFEA83"/>
<stop offset="0.0833333" stop-color="#FFDD35"/>
<stop offset="1" stop-color="#FFA800"/>
</linearGradient>
</defs>
</svg>
